<?xml version="1.0" encoding="UTF-8" standalone="no"?>
<!DOCTYPE svg PUBLIC "-//W3C//DTD SVG 1.1//EN"
 "http://www.w3.org/Graphics/SVG/1.1/DTD/svg11.dtd">
<!-- Generated by graphviz version 2.40.1 (20161225.0304)
 -->
<!-- Title: %3 Pages: 1 -->
<svg width="892pt" height="620pt"
 viewBox="0.00 0.00 892.01 620.00" xmlns="http://www.w3.org/2000/svg" xmlns:xlink="http://www.w3.org/1999/xlink">
<g id="graph0" class="graph" transform="scale(1 1) rotate(0) translate(4 616)">
<title>%3</title>
<polygon fill="#ffffff" stroke="transparent" points="-4,4 -4,-616 888.01,-616 888.01,4 -4,4"/>
<!-- [root] azurerm_network_interface.myterraformnic -->
<g id="node1" class="node">
<title>[root] azurerm_network_interface.myterraformnic</title>
<polygon fill="none" stroke="#000000" points="429.7412,-396 167.6631,-396 167.6631,-360 429.7412,-360 429.7412,-396"/>
<text text-anchor="middle" x="298.7021" y="-373.8" font-family="Times,serif" font-size="14.00" fill="#000000">azurerm_network_interface.myterraformnic</text>
</g>
<!-- [root] azurerm_network_security_group.myterraformnsg -->
<g id="node2" class="node">
<title>[root] azurerm_network_security_group.myterraformnsg</title>
<polygon fill="none" stroke="#000000" points="299.6067,-252 -.2024,-252 -.2024,-216 299.6067,-216 299.6067,-252"/>
<text text-anchor="middle" x="149.7021" y="-229.8" font-family="Times,serif" font-size="14.00" fill="#000000">azurerm_network_security_group.myterraformnsg</text>
</g>
<!-- [root] azurerm_network_interface.myterraformnic&#45;&gt;[root] azurerm_network_security_group.myterraformnsg -->
<g id="edge1" class="edge">
<title>[root] azurerm_network_interface.myterraformnic&#45;&gt;[root] azurerm_network_security_group.myterraformnsg</title>
<path fill="none" stroke="#000000" d="M221.2897,-359.8647C201.6413,-351.8414 182.2784,-340.3633 168.7021,-324 154.5063,-306.8899 150.1314,-281.7726 149.094,-262.4173"/>
<polygon fill="#000000" stroke="#000000" points="152.5907,-262.2457 148.8199,-252.3446 145.5933,-262.4362 152.5907,-262.2457"/>
</g>
<!-- [root] azurerm_public_ip.myterraformpublicip -->
<g id="node3" class="node">
<title>[root] azurerm_public_ip.myterraformpublicip</title>
<polygon fill="none" stroke="#000000" points="419.5684,-324 177.8359,-324 177.8359,-288 419.5684,-288 419.5684,-324"/>
<text text-anchor="middle" x="298.7021" y="-301.8" font-family="Times,serif" font-size="14.00" fill="#000000">azurerm_public_ip.myterraformpublicip</text>
</g>
<!-- [root] azurerm_network_interface.myterraformnic&#45;&gt;[root] azurerm_public_ip.myterraformpublicip -->
<g id="edge2" class="edge">
<title>[root] azurerm_network_interface.myterraformnic&#45;&gt;[root] azurerm_public_ip.myterraformpublicip</title>
<path fill="none" stroke="#000000" d="M298.7021,-359.8314C298.7021,-352.131 298.7021,-342.9743 298.7021,-334.4166"/>
<polygon fill="#000000" stroke="#000000" points="302.2022,-334.4132 298.7021,-324.4133 295.2022,-334.4133 302.2022,-334.4132"/>
</g>
<!-- [root] azurerm_subnet.myterraformsubnet -->
<g id="node6" class="node">
<title>[root] azurerm_subnet.myterraformsubnet</title>
<polygon fill="none" stroke="#000000" points="653.9063,-324 437.498,-324 437.498,-288 653.9063,-288 653.9063,-324"/>
<text text-anchor="middle" x="545.7021" y="-301.8" font-family="Times,serif" font-size="14.00" fill="#000000">azurerm_subnet.myterraformsubnet</text>
</g>
<!-- [root] azurerm_network_interface.myterraformnic&#45;&gt;[root] azurerm_subnet.myterraformsubnet -->
<g id="edge3" class="edge">
<title>[root] azurerm_network_interface.myterraformnic&#45;&gt;[root] azurerm_subnet.myterraformsubnet</title>
<path fill="none" stroke="#000000" d="M360.7119,-359.9243C395.0654,-349.9103 437.9414,-337.412 473.7633,-326.97"/>
<polygon fill="#000000" stroke="#000000" points="475.046,-330.2419 483.6669,-324.0831 473.087,-323.5216 475.046,-330.2419"/>
</g>
<!-- [root] azurerm_resource_group.myterraformgroup -->
<g id="node4" class="node">
<title>[root] azurerm_resource_group.myterraformgroup</title>
<polygon fill="none" stroke="#000000" points="542.0411,-180 279.3632,-180 279.3632,-144 542.0411,-144 542.0411,-180"/>
<text text-anchor="middle" x="410.7021" y="-157.8" font-family="Times,serif" font-size="14.00" fill="#000000">azurerm_resource_group.myterraformgroup</text>
</g>
<!-- [root] azurerm_network_security_group.myterraformnsg&#45;&gt;[root] azurerm_resource_group.myterraformgroup -->
<g id="edge4" class="edge">
<title>[root] azurerm_network_security_group.myterraformnsg&#45;&gt;[root] azurerm_resource_group.myterraformgroup</title>
<path fill="none" stroke="#000000" d="M215.2266,-215.9243C251.6825,-205.8675 297.2209,-193.3052 335.1707,-182.8363"/>
<polygon fill="#000000" stroke="#000000" points="336.4416,-186.1165 345.1508,-180.0831 334.5801,-179.3685 336.4416,-186.1165"/>
</g>
<!-- [root] azurerm_public_ip.myterraformpublicip&#45;&gt;[root] azurerm_resource_group.myterraformgroup -->
<g id="edge5" class="edge">
<title>[root] azurerm_public_ip.myterraformpublicip&#45;&gt;[root] azurerm_resource_group.myterraformgroup</title>
<path fill="none" stroke="#000000" d="M305.9183,-287.8835C314.0563,-268.7948 328.5534,-238.4452 346.7021,-216 355.4429,-205.1899 366.5836,-194.9212 377.1116,-186.2977"/>
<polygon fill="#000000" stroke="#000000" points="379.3362,-189.0005 384.9931,-180.0423 374.9845,-183.5176 379.3362,-189.0005"/>
</g>
<!-- [root] provider.azurerm -->
<g id="node9" class="node">
<title>[root] provider.azurerm</title>
<polygon fill="none" stroke="#000000" points="410.7021,-108 310.5659,-90 410.7021,-72 510.8384,-90 410.7021,-108"/>
<text text-anchor="middle" x="410.7021" y="-85.8" font-family="Times,serif" font-size="14.00" fill="#000000">provider.azurerm</text>
</g>
<!-- [root] azurerm_resource_group.myterraformgroup&#45;&gt;[root] provider.azurerm -->
<g id="edge6" class="edge">
<title>[root] azurerm_resource_group.myterraformgroup&#45;&gt;[root] provider.azurerm</title>
<path fill="none" stroke="#000000" d="M410.7021,-143.8314C410.7021,-136.131 410.7021,-126.9743 410.7021,-118.4166"/>
<polygon fill="#000000" stroke="#000000" points="414.2022,-118.4132 410.7021,-108.4133 407.2022,-118.4133 414.2022,-118.4132"/>
</g>
<!-- [root] azurerm_storage_account.mystorageaccount -->
<g id="node5" class="node">
<title>[root] azurerm_storage_account.mystorageaccount</title>
<polygon fill="none" stroke="#000000" points="713.3653,-396 448.039,-396 448.039,-360 713.3653,-360 713.3653,-396"/>
<text text-anchor="middle" x="580.7021" y="-373.8" font-family="Times,serif" font-size="14.00" fill="#000000">azurerm_storage_account.mystorageaccount</text>
</g>
<!-- [root] random_id.randomId -->
<g id="node11" class="node">
<title>[root] random_id.randomId</title>
<polygon fill="none" stroke="#000000" points="807.7858,-324 673.6185,-324 673.6185,-288 807.7858,-288 807.7858,-324"/>
<text text-anchor="middle" x="740.7021" y="-301.8" font-family="Times,serif" font-size="14.00" fill="#000000">random_id.randomId</text>
</g>
<!-- [root] azurerm_storage_account.mystorageaccount&#45;&gt;[root] random_id.randomId -->
<g id="edge7" class="edge">
<title>[root] azurerm_storage_account.mystorageaccount&#45;&gt;[root] random_id.randomId</title>
<path fill="none" stroke="#000000" d="M621.0769,-359.8314C642.3809,-350.2446 668.7005,-338.4008 691.2232,-328.2655"/>
<polygon fill="#000000" stroke="#000000" points="692.9348,-331.3334 700.6177,-324.038 690.0622,-324.95 692.9348,-331.3334"/>
</g>
<!-- [root] azurerm_virtual_network.myterraformnetwork -->
<g id="node8" class="node">
<title>[root] azurerm_virtual_network.myterraformnetwork</title>
<polygon fill="none" stroke="#000000" points="634.0999,-252 355.3044,-252 355.3044,-216 634.0999,-216 634.0999,-252"/>
<text text-anchor="middle" x="494.7021" y="-229.8" font-family="Times,serif" font-size="14.00" fill="#000000">azurerm_virtual_network.myterraformnetwork</text>
</g>
<!-- [root] azurerm_subnet.myterraformsubnet&#45;&gt;[root] azurerm_virtual_network.myterraformnetwork -->
<g id="edge8" class="edge">
<title>[root] azurerm_subnet.myterraformsubnet&#45;&gt;[root] azurerm_virtual_network.myterraformnetwork</title>
<path fill="none" stroke="#000000" d="M532.8327,-287.8314C527.0186,-279.6232 520.0325,-269.7606 513.6375,-260.7323"/>
<polygon fill="#000000" stroke="#000000" points="516.3812,-258.5505 507.7449,-252.4133 510.669,-262.5966 516.3812,-258.5505"/>
</g>
<!-- [root] azurerm_virtual_machine.myterraformvm -->
<g id="node7" class="node">
<title>[root] azurerm_virtual_machine.myterraformvm</title>
<polygon fill="none" stroke="#000000" points="515.6582,-468 263.7461,-468 263.7461,-432 515.6582,-432 515.6582,-468"/>
<text text-anchor="middle" x="389.7021" y="-445.8" font-family="Times,serif" font-size="14.00" fill="#000000">azurerm_virtual_machine.myterraformvm</text>
</g>
<!-- [root] azurerm_virtual_machine.myterraformvm&#45;&gt;[root] azurerm_network_interface.myterraformnic -->
<g id="edge9" class="edge">
<title>[root] azurerm_virtual_machine.myterraformvm&#45;&gt;[root] azurerm_network_interface.myterraformnic</title>
<path fill="none" stroke="#000000" d="M366.739,-431.8314C355.5306,-422.9632 341.8813,-412.1637 329.7582,-402.5718"/>
<polygon fill="#000000" stroke="#000000" points="331.6719,-399.6229 321.6579,-396.1628 327.3285,-405.1125 331.6719,-399.6229"/>
</g>
<!-- [root] azurerm_virtual_machine.myterraformvm&#45;&gt;[root] azurerm_storage_account.mystorageaccount -->
<g id="edge10" class="edge">
<title>[root] azurerm_virtual_machine.myterraformvm&#45;&gt;[root] azurerm_storage_account.mystorageaccount</title>
<path fill="none" stroke="#000000" d="M437.8995,-431.8314C463.8988,-422.0306 496.1557,-409.8709 523.4303,-399.5894"/>
<polygon fill="#000000" stroke="#000000" points="524.7287,-402.8404 532.8514,-396.038 522.2595,-396.2904 524.7287,-402.8404"/>
</g>
<!-- [root] azurerm_virtual_network.myterraformnetwork&#45;&gt;[root] azurerm_resource_group.myterraformgroup -->
<g id="edge11" class="edge">
<title>[root] azurerm_virtual_network.myterraformnetwork&#45;&gt;[root] azurerm_resource_group.myterraformgroup</title>
<path fill="none" stroke="#000000" d="M473.5054,-215.8314C463.2587,-207.0485 450.8019,-196.3712 439.6925,-186.8489"/>
<polygon fill="#000000" stroke="#000000" points="441.7625,-184.0134 431.8921,-180.1628 437.2069,-189.3282 441.7625,-184.0134"/>
</g>
<!-- [root] var.client_id -->
<g id="node12" class="node">
<title>[root] var.client_id</title>
<polygon fill="none" stroke="#000000" points="267.2998,-36 188.1045,-36 188.1045,0 273.2998,0 273.2998,-30 267.2998,-36"/>
<polyline fill="none" stroke="#000000" points="267.2998,-36 267.2998,-30 "/>
<polyline fill="none" stroke="#000000" points="273.2998,-30 267.2998,-30 "/>
<text text-anchor="middle" x="230.7021" y="-13.8" font-family="Times,serif" font-size="14.00" fill="#000000">var.client_id</text>
</g>
<!-- [root] provider.azurerm&#45;&gt;[root] var.client_id -->
<g id="edge14" class="edge">
<title>[root] provider.azurerm&#45;&gt;[root] var.client_id</title>
<path fill="none" stroke="#000000" d="M379.3485,-77.4586C352.7855,-66.8333 314.1501,-51.3792 282.9259,-38.8895"/>
<polygon fill="#000000" stroke="#000000" points="284.0798,-35.5815 273.4951,-35.1172 281.48,-42.0808 284.0798,-35.5815"/>
</g>
<!-- [root] var.client_secret -->
<g id="node13" class="node">
<title>[root] var.client_secret</title>
<polygon fill="none" stroke="#000000" points="392.5513,-36 290.8529,-36 290.8529,0 398.5513,0 398.5513,-30 392.5513,-36"/>
<polyline fill="none" stroke="#000000" points="392.5513,-36 392.5513,-30 "/>
<polyline fill="none" stroke="#000000" points="398.5513,-30 392.5513,-30 "/>
<text text-anchor="middle" x="344.7021" y="-13.8" font-family="Times,serif" font-size="14.00" fill="#000000">var.client_secret</text>
</g>
<!-- [root] provider.azurerm&#45;&gt;[root] var.client_secret -->
<g id="edge15" class="edge">
<title>[root] provider.azurerm&#45;&gt;[root] var.client_secret</title>
<path fill="none" stroke="#000000" d="M396.3811,-74.3771C388.1636,-65.4125 377.642,-53.9344 368.2398,-43.6774"/>
<polygon fill="#000000" stroke="#000000" points="370.6621,-41.1403 361.3248,-36.1338 365.502,-45.8704 370.6621,-41.1403"/>
</g>
<!-- [root] var.subscription_id -->
<g id="node14" class="node">
<title>[root] var.subscription_id</title>
<polygon fill="none" stroke="#000000" points="533.1436,-36 416.2607,-36 416.2607,0 539.1436,0 539.1436,-30 533.1436,-36"/>
<polyline fill="none" stroke="#000000" points="533.1436,-36 533.1436,-30 "/>
<polyline fill="none" stroke="#000000" points="539.1436,-30 533.1436,-30 "/>
<text text-anchor="middle" x="477.7021" y="-13.8" font-family="Times,serif" font-size="14.00" fill="#000000">var.subscription_id</text>
</g>
<!-- [root] provider.azurerm&#45;&gt;[root] var.subscription_id -->
<g id="edge16" class="edge">
<title>[root] provider.azurerm&#45;&gt;[root] var.subscription_id</title>
<path fill="none" stroke="#000000" d="M425.2402,-74.3771C433.5822,-65.4125 444.2632,-53.9344 453.8079,-43.6774"/>
<polygon fill="#000000" stroke="#000000" points="456.5776,-45.8388 460.8277,-36.1338 451.4531,-41.0702 456.5776,-45.8388"/>
</g>
<!-- [root] var.tenant_id -->
<g id="node15" class="node">
<title>[root] var.tenant_id</title>
<polygon fill="none" stroke="#000000" points="639.9097,-36 557.4946,-36 557.4946,0 645.9097,0 645.9097,-30 639.9097,-36"/>
<polyline fill="none" stroke="#000000" points="639.9097,-36 639.9097,-30 "/>
<polyline fill="none" stroke="#000000" points="645.9097,-30 639.9097,-30 "/>
<text text-anchor="middle" x="601.7021" y="-13.8" font-family="Times,serif" font-size="14.00" fill="#000000">var.tenant_id</text>
</g>
<!-- [root] provider.azurerm&#45;&gt;[root] var.tenant_id -->
<g id="edge17" class="edge">
<title>[root] provider.azurerm&#45;&gt;[root] var.tenant_id</title>
<path fill="none" stroke="#000000" d="M443.1027,-77.7862C471.6793,-67.0139 513.8995,-51.0984 547.5952,-38.3963"/>
<polygon fill="#000000" stroke="#000000" points="549.1806,-41.5392 557.3032,-34.7368 546.7114,-34.9891 549.1806,-41.5392"/>
</g>
<!-- [root] provider.random -->
<g id="node10" class="node">
<title>[root] provider.random</title>
<polygon fill="none" stroke="#000000" points="786.7021,-252 689.586,-234 786.7021,-216 883.8183,-234 786.7021,-252"/>
<text text-anchor="middle" x="786.7021" y="-229.8" font-family="Times,serif" font-size="14.00" fill="#000000">provider.random</text>
</g>
<!-- [root] random_id.randomId&#45;&gt;[root] azurerm_resource_group.myterraformgroup -->
<g id="edge19" class="edge">
<title>[root] random_id.randomId&#45;&gt;[root] azurerm_resource_group.myterraformgroup</title>
<path fill="none" stroke="#000000" d="M720.3114,-287.8814C708.6468,-277.4586 693.7781,-264.0744 680.7021,-252 663.6101,-236.2172 663.1903,-227.0213 642.7021,-216 614.9331,-201.0621 583.1247,-190.2321 552.1467,-182.3882"/>
<polygon fill="#000000" stroke="#000000" points="552.6687,-178.913 542.1242,-179.9449 551.0108,-185.7138 552.6687,-178.913"/>
</g>
<!-- [root] random_id.randomId&#45;&gt;[root] provider.random -->
<g id="edge20" class="edge">
<title>[root] random_id.randomId&#45;&gt;[root] provider.random</title>
<path fill="none" stroke="#000000" d="M752.3099,-287.8314C757.8767,-279.1181 764.6347,-268.5404 770.6816,-259.0756"/>
<polygon fill="#000000" stroke="#000000" points="773.7648,-260.7506 776.1993,-250.4393 767.8659,-256.9819 773.7648,-260.7506"/>
</g>
<!-- [root] meta.count&#45;boundary (EachMode fixup) -->
<g id="node16" class="node">
<title>[root] meta.count&#45;boundary (EachMode fixup)</title>
<ellipse fill="none" stroke="#000000" cx="282.7021" cy="-522" rx="174.7874" ry="18"/>
<text text-anchor="middle" x="282.7021" y="-517.8" font-family="Times,serif" font-size="14.00" fill="#000000">[root] meta.count&#45;boundary (EachMode fixup)</text>
</g>
<!-- [root] meta.count&#45;boundary (EachMode fixup)&#45;&gt;[root] azurerm_virtual_machine.myterraformvm -->
<g id="edge12" class="edge">
<title>[root] meta.count&#45;boundary (EachMode fixup)&#45;&gt;[root] azurerm_virtual_machine.myterraformvm</title>
<path fill="none" stroke="#000000" d="M309.1516,-504.2022C322.8091,-495.0121 339.6583,-483.6744 354.4103,-473.7478"/>
<polygon fill="#000000" stroke="#000000" points="356.4712,-476.5797 362.8138,-468.0931 352.5632,-470.7721 356.4712,-476.5797"/>
</g>
<!-- [root] provider.azurerm (close) -->
<g id="node17" class="node">
<title>[root] provider.azurerm (close)</title>
<ellipse fill="none" stroke="#000000" cx="594.7021" cy="-522" rx="119.2527" ry="18"/>
<text text-anchor="middle" x="594.7021" y="-517.8" font-family="Times,serif" font-size="14.00" fill="#000000">[root] provider.azurerm (close)</text>
</g>
<!-- [root] provider.azurerm (close)&#45;&gt;[root] azurerm_virtual_machine.myterraformvm -->
<g id="edge13" class="edge">
<title>[root] provider.azurerm (close)&#45;&gt;[root] azurerm_virtual_machine.myterraformvm</title>
<path fill="none" stroke="#000000" d="M547.4136,-505.3913C518.7119,-495.3108 481.7778,-482.3388 450.8678,-471.4826"/>
<polygon fill="#000000" stroke="#000000" points="451.6567,-468.0501 441.0619,-468.0385 449.337,-474.6546 451.6567,-468.0501"/>
</g>
<!-- [root] provider.random (close) -->
<g id="node18" class="node">
<title>[root] provider.random (close)</title>
<ellipse fill="none" stroke="#000000" cx="741.7021" cy="-450" rx="117.3491" ry="18"/>
<text text-anchor="middle" x="741.7021" y="-445.8" font-family="Times,serif" font-size="14.00" fill="#000000">[root] provider.random (close)</text>
</g>
<!-- [root] provider.random (close)&#45;&gt;[root] random_id.randomId -->
<g id="edge18" class="edge">
<title>[root] provider.random (close)&#45;&gt;[root] random_id.randomId</title>
<path fill="none" stroke="#000000" d="M741.5755,-431.7623C741.4049,-407.201 741.0997,-363.2474 740.8991,-334.3541"/>
<polygon fill="#000000" stroke="#000000" points="744.3972,-334.065 740.8278,-324.0896 737.3974,-334.1137 744.3972,-334.065"/>
</g>
<!-- [root] root -->
<g id="node19" class="node">
<title>[root] root</title>
<ellipse fill="none" stroke="#000000" cx="594.7021" cy="-594" rx="46.8976" ry="18"/>
<text text-anchor="middle" x="594.7021" y="-589.8" font-family="Times,serif" font-size="14.00" fill="#000000">[root] root</text>
</g>
<!-- [root] root&#45;&gt;[root] meta.count&#45;boundary (EachMode fixup) -->
<g id="edge21" class="edge">
<title>[root] root&#45;&gt;[root] meta.count&#45;boundary (EachMode fixup)</title>
<path fill="none" stroke="#000000" d="M554.5523,-584.7347C506.6121,-573.6715 425.2316,-554.8914 363.9767,-540.7557"/>
<polygon fill="#000000" stroke="#000000" points="364.4738,-537.2785 353.9428,-538.4402 362.8997,-544.0992 364.4738,-537.2785"/>
</g>
<!-- [root] root&#45;&gt;[root] provider.azurerm (close) -->
<g id="edge22" class="edge">
<title>[root] root&#45;&gt;[root] provider.azurerm (close)</title>
<path fill="none" stroke="#000000" d="M594.7021,-575.8314C594.7021,-568.131 594.7021,-558.9743 594.7021,-550.4166"/>
<polygon fill="#000000" stroke="#000000" points="598.2022,-550.4132 594.7021,-540.4133 591.2022,-550.4133 598.2022,-550.4132"/>
</g>
<!-- [root] root&#45;&gt;[root] provider.random (close) -->
<g id="edge23" class="edge">
<title>[root] root&#45;&gt;[root] provider.random (close)</title>
<path fill="none" stroke="#000000" d="M637.4094,-586.5996C665.7222,-579.459 701.4436,-565.7671 722.7021,-540 736.8507,-522.8508 741.2298,-497.7369 742.2808,-478.3929"/>
<polygon fill="#000000" stroke="#000000" points="745.7812,-478.4213 742.5631,-468.327 738.784,-478.2249 745.7812,-478.4213"/>
</g>
</g>
</svg>
